<svg width="56" height="65" viewBox="0 0 56 65" fill="none" xmlns="http://www.w3.org/2000/svg">
<path d="M0 0.994141L5.09667 58.3771L27.966 64.772L50.8993 58.3537L56 0.994141H0V0.994141ZM45.4118 14.1408L43.7153 33.2569L43.7203 33.3601L43.7133 33.5975V33.5955L42.5079 46.9618L42.3751 48.1493L28 52.1367V52.1372L27.9889 52.1468L13.6386 48.1371L12.6669 37.0863H19.7039L20.2032 42.7055L28.002 44.8252L28 44.8293V44.8283L35.8277 42.6785L36.655 33.5279H20.2914L20.151 31.981L19.8311 28.3571L19.6634 26.4111H37.2769L37.9176 19.2944H11.0905L10.9501 17.7485L10.6308 14.1235L10.4625 12.1776H45.5796L45.4118 14.1408V14.1408Z" fill="#1572B6"/>
</svg>
