<svg width="64" height="66" viewBox="0 0 64 66" fill="none" xmlns="http://www.w3.org/2000/svg">
<path d="M62.7927 30.4789L34.8495 2.19129C33.2413 0.562214 30.6314 0.562214 29.0206 2.19129L23.2187 8.06602L30.5791 15.5175C32.2902 14.9329 34.2512 15.325 35.6145 16.7052C36.9849 18.094 37.3692 20.0962 36.7776 21.8341L43.8714 29.0161C45.5875 28.4172 47.5683 28.8041 48.9382 30.194C50.8546 32.1326 50.8546 35.2753 48.9382 37.2149C47.0218 39.155 43.9185 39.155 42.0011 37.2149C40.5602 35.7552 40.2038 33.6123 40.9339 31.8149L34.3187 25.1179L34.3177 42.7437C34.7851 42.9772 35.2257 43.2893 35.615 43.6819C37.5304 45.6205 37.5304 48.7621 35.615 50.7048C33.6991 52.6434 30.5938 52.6434 28.68 50.7048C26.7646 48.7626 26.7646 45.621 28.68 43.6819C29.1535 43.203 29.701 42.8412 30.2856 42.5989V24.81C29.701 24.5677 29.1545 24.2084 28.68 23.7265C27.229 22.2586 26.8796 20.1029 27.6239 18.2983L20.3674 10.9521L1.20727 30.348C-0.402422 31.9786 -0.402422 34.6209 1.20727 36.2505L29.1509 64.5381C30.7601 66.1672 33.3691 66.1672 34.9808 64.5381L62.7932 36.3819C64.4024 34.7518 64.4024 32.108 62.7927 30.4789V30.4789Z" fill="#F34F29"/>
</svg>
