<svg width="63" height="65" viewBox="0 0 63 65" fill="none" xmlns="http://www.w3.org/2000/svg">
<path d="M0 0.981934H63V64.76H0V0.981934Z" fill="#F0DB4F"/>
<path d="M57.8313 49.3249C57.3749 46.3614 55.5214 43.8723 50.0311 41.5512C48.1238 40.6374 45.9976 39.9831 45.364 38.4762C45.139 37.5993 45.1091 37.1053 45.2515 36.5744C45.6601 34.8517 47.6326 34.3146 49.1959 34.8086C50.2028 35.1604 51.1559 35.9694 51.7308 37.2599C54.4195 35.4448 54.414 35.4567 56.2914 34.2093C55.604 33.0983 55.2372 32.5856 54.7873 32.1103C53.1702 30.2272 50.9668 29.2574 47.4429 29.3316L45.6074 29.5791C43.8484 30.0425 42.1721 31.0051 41.1891 32.2956C38.2396 35.7847 39.0808 41.8911 42.6698 44.4041C46.2056 47.1709 51.3998 47.8004 52.0633 50.3876C52.7088 53.555 49.8305 54.5803 46.9696 54.2161C44.8613 53.7589 43.6887 52.6417 42.421 50.6102C40.0877 52.018 40.0877 52.018 37.6887 53.4564C38.2576 54.7531 38.8553 55.34 39.8089 56.4634C44.3223 61.2363 55.6165 61.0018 57.6422 53.7776C57.7243 53.5296 58.2698 51.8753 57.8313 49.3249V49.3249ZM34.4958 29.714H28.668L28.6441 45.4222C28.6441 48.7629 28.8099 51.8255 28.2888 52.7642C27.4362 54.6104 25.2268 54.3816 24.2199 54.0236C23.1951 53.4984 22.674 52.7517 22.0703 51.6963C21.9045 51.3932 21.7801 51.1587 21.7383 51.1405L17 54.1657C17.7879 55.8516 18.9486 57.315 20.4353 58.2656C22.6561 59.6552 25.6409 60.0812 28.7626 59.334C30.7943 58.717 32.5472 57.439 33.465 55.4936C34.7919 52.9432 34.5072 49.8563 34.4953 46.4419C34.5252 40.8715 34.4958 35.3021 34.4958 29.714Z" fill="#323330"/>
</svg>
