<svg width="101" height="101" viewBox="0 0 101 101" fill="none" xmlns="http://www.w3.org/2000/svg">
<path d="M1.57891 71.377H4.82038V58.5761L9.83882 69.7358C10.4306 71.0866 11.241 71.564 12.8309 71.564C14.4209 71.564 15.2005 71.0866 15.7923 69.7358L20.8107 58.5761V71.377H24.0522V58.5974C24.0522 57.3506 23.5535 56.747 22.5246 56.4361C20.0619 55.6676 18.4096 56.3327 17.6616 57.9953L12.737 69.009L7.96874 57.9945C7.25148 56.3327 5.56841 55.6676 3.10575 56.4353C2.07681 56.747 1.57812 57.3498 1.57812 58.5966V71.377H1.57891ZM26.7484 60.9567H29.9891V68.0093C29.9591 68.392 30.1122 69.2915 31.8876 69.3199C32.7934 69.3341 38.8803 69.3199 38.9371 69.3199V60.9219H42.1856C42.2006 60.9219 42.1825 72.3744 42.1825 72.4217C42.1999 75.2466 38.6783 75.8597 37.0544 75.907H26.8187V73.726C26.836 73.726 37.0473 73.7284 37.0725 73.7253C39.1596 73.5051 38.9126 72.4683 38.9118 72.1195V71.2689H32.0225C28.8174 71.2397 26.7753 69.8407 26.7492 68.231C26.7476 68.0835 26.8194 61.0277 26.7484 60.9567Z" fill="#00618A"/>
<path d="M44.6847 71.377H54.0051C55.0964 71.377 56.1569 71.149 56.998 70.7544C58.4002 70.1106 59.0859 69.2379 59.0859 68.0937V65.7249C59.0859 64.7899 58.3071 63.9164 56.7794 63.3357C55.9691 63.0232 54.9709 62.8583 54.0043 62.8583H50.0764C48.7673 62.8583 48.1439 62.4638 47.9885 61.591C47.9577 61.4869 47.9577 61.404 47.9577 61.2999V59.8243C47.9577 59.7415 47.9577 59.6578 47.9885 59.5545C48.1439 58.8893 48.4872 58.7023 49.6408 58.5981L49.9525 58.5776H59.2105V56.4172H50.1087C48.7997 56.4172 48.114 56.5 47.4906 56.687C45.5582 57.2899 44.7155 58.2454 44.7155 59.908V61.7986C44.7155 63.2536 46.3686 64.5003 49.1421 64.7915C49.4546 64.8112 49.7655 64.8333 50.0771 64.8333H53.4441C53.5687 64.8333 53.6934 64.8333 53.7873 64.853C54.8163 64.9359 55.2518 65.1237 55.5643 65.4969C55.7513 65.6839 55.8128 65.8717 55.8128 66.0784V67.9698C55.8128 68.1979 55.6574 68.489 55.3457 68.7384C55.0656 68.9877 54.5977 69.1542 53.9743 69.196L53.6311 69.2165H44.6847V71.377ZM79.3095 67.6163C79.3095 69.8391 80.9618 71.0858 84.2964 71.336C84.6081 71.3565 84.9198 71.377 85.2315 71.377H93.6792V69.2165H85.1699C83.2683 69.2165 82.5518 68.7384 82.5518 67.595V56.4156H79.3103V67.6163H79.3095ZM61.1548 67.7284V60.0232C61.1548 58.0663 62.5293 56.8788 65.2469 56.504C65.5278 56.4621 65.841 56.4416 66.1212 56.4416H72.2751C72.5875 56.4416 72.8684 56.4621 73.1801 56.504C75.8976 56.8788 77.273 58.0655 77.273 60.0232V67.7284C77.273 69.3175 76.6891 70.1666 75.3437 70.7205L78.5378 73.6029H74.7732L72.1898 71.2705L69.5891 71.4354H66.1212C65.5278 71.4354 64.9036 71.3525 64.2164 71.1647C62.1545 70.6029 61.1548 69.5195 61.1548 67.7284ZM64.6535 67.5414C64.6535 67.6455 64.6843 67.7505 64.7158 67.8751C64.9028 68.7707 65.7471 69.2702 67.027 69.2702H69.9718L67.2669 66.8281H71.0315L73.39 68.9585C73.8256 68.7257 74.1112 68.3723 74.2114 67.917C74.2422 67.8128 74.2422 67.7087 74.2422 67.6045V60.2126C74.2422 60.1297 74.2422 60.0248 74.2114 59.9206C74.0236 59.0874 73.1801 58.6092 71.931 58.6092H67.0262C65.5901 58.6092 64.6527 59.2341 64.6527 60.2126V67.5414H64.6535Z" fill="#E48E00"/>
<path d="M96.5307 52.8293C94.5383 52.7748 93.0162 52.9603 91.7143 53.5087C91.3442 53.6649 90.7548 53.6688 90.6948 54.132C90.8976 54.3459 90.9292 54.6639 91.0909 54.9258C91.4018 55.4285 91.9265 56.1023 92.3944 56.455C92.905 56.8409 93.4321 57.2544 93.9813 57.5889C94.9557 58.1839 96.0446 58.5232 96.9844 59.1181C97.5376 59.47 98.0867 59.9119 98.6272 60.3088C98.8947 60.5037 99.0731 60.8091 99.421 60.9314V60.8754C99.2388 60.6434 99.1914 60.3246 99.0241 60.0816L98.2872 59.3446C97.5667 58.3882 96.653 57.5495 95.6801 56.8519C94.9052 56.2956 93.1709 55.5437 92.8474 54.6418L92.7906 54.5857C93.3397 54.5234 93.9836 54.3246 94.4902 54.1888C95.3424 53.96 96.1038 54.0192 96.9836 53.7919L98.1735 53.4511V53.2254C97.7293 52.7693 97.4113 52.1649 96.9268 51.7522C95.6588 50.672 94.2732 49.5926 92.8474 48.6914C92.0567 48.1928 91.0791 47.8685 90.2403 47.4455C89.9594 47.3027 89.4639 47.2293 89.2769 46.9918C88.8358 46.4308 88.5967 45.7198 88.2566 45.0657C87.5464 43.6967 86.8473 42.2006 86.2169 40.759C85.7876 39.7766 85.5067 38.8076 84.9709 37.9263C82.3978 33.6961 79.6282 31.1427 75.3381 28.6335C74.4251 28.0993 73.326 27.8894 72.1652 27.614L70.2952 27.5004C69.9156 27.3418 69.5195 26.8762 69.1621 26.6506C67.7402 25.7526 64.0947 23.7997 63.0421 26.3681C62.3777 27.9888 64.0363 29.5701 64.6289 30.3915C65.0447 30.9675 65.5782 31.613 65.8756 32.2608C66.0713 32.6869 66.1045 33.1138 66.2725 33.5643C66.6836 34.6738 67.0427 35.8818 67.5753 36.9068C67.8443 37.426 68.1418 37.9728 68.4819 38.4368C68.6902 38.7209 69.0485 38.8471 69.1045 39.2866C68.7549 39.7758 68.7344 40.5365 68.5379 41.1559C67.6526 43.9484 67.9864 47.4195 69.2749 49.486C69.6702 50.1212 70.6013 51.4816 71.8812 50.9592C73.0009 50.5031 72.7515 49.0899 73.0719 47.8424C73.1445 47.5607 73.0995 47.3524 73.2415 47.163V47.2198L74.2618 49.2596C75.0169 50.4755 76.356 51.7451 77.4914 52.6028C78.0801 53.0471 78.544 53.8164 79.3047 54.076V54.0184H79.2487C79.1003 53.7888 78.8707 53.6941 78.6813 53.5087C78.2379 53.0739 77.7447 52.5342 77.3786 52.0355C76.3457 50.6341 75.4335 49.0994 74.6019 47.5023C74.205 46.7401 73.8602 45.899 73.5256 45.1225C73.3962 44.8235 73.3978 44.3705 73.1295 44.2167C72.7618 44.7848 72.2228 45.2448 71.9388 45.9163C71.4859 46.9894 71.4275 48.2985 71.2594 49.6557L71.1458 49.7117C70.3559 49.5215 70.079 48.7088 69.7854 48.0121C69.0437 46.2501 68.9056 43.4118 69.559 41.3832C69.7278 40.8576 70.4909 39.2045 70.1815 38.7193C70.034 38.2356 69.5471 37.9563 69.2757 37.5854C68.9388 37.1285 68.6018 36.5273 68.3691 35.9986C67.7615 34.6248 67.4782 33.0822 66.8399 31.6927C66.5337 31.0283 66.0177 30.3568 65.5931 29.7666C65.1237 29.1117 64.5973 28.6303 64.2328 27.8397C64.1034 27.5588 63.9274 27.1082 64.1192 26.8194C64.1799 26.6245 64.2675 26.5433 64.4601 26.4793C64.7883 26.226 65.7036 26.5638 66.0461 26.7058C66.9551 27.0838 67.7134 27.4428 68.4835 27.9525C68.8528 28.1979 69.226 28.6714 69.6734 28.8023H70.1831C70.9809 28.9854 71.8749 28.8584 72.6197 29.0848C73.9375 29.4857 75.1179 30.1082 76.1895 30.7853C79.4554 32.8479 82.1248 35.7832 83.9523 39.285C84.2458 39.8492 84.3736 40.3866 84.6316 40.9847C85.154 42.1904 85.8121 43.4316 86.3313 44.6112C86.8497 45.7877 87.3555 46.9752 88.0885 47.9545C88.4736 48.4689 89.9618 48.7451 90.638 49.0307C91.1122 49.2312 91.8887 49.4403 92.3376 49.7101C93.1953 50.2278 94.027 50.844 94.8311 51.4106C95.2327 51.6962 96.4692 52.3172 96.5307 52.8293ZM71.2026 31.2413C70.7875 31.2334 70.4932 31.2871 70.1823 31.355V31.411H70.2391C70.4372 31.8189 70.7868 32.0809 71.0322 32.4312L71.5995 33.6211L71.6555 33.5651C72.0066 33.3181 72.1668 32.9228 72.1652 32.3184C72.024 32.1701 72.0035 31.9846 71.882 31.8087C71.721 31.5719 71.407 31.4394 71.2026 31.2413Z" fill="#00618A"/>
</svg>
