<svg width="63" height="48" viewBox="0 0 63 48" fill="none" xmlns="http://www.w3.org/2000/svg">
<path fill-rule="evenodd" clip-rule="evenodd" d="M0 19.9088C0 20.265 0.103868 20.5002 0.162074 20.7287C0.541416 22.2148 1.3568 23.4902 2.32423 24.6536C3.7021 26.3115 5.38958 27.6462 7.1182 28.9013C8.6175 29.9897 10.1474 31.0538 11.6527 32.1341C11.9112 32.3195 12.1555 32.5328 12.436 32.7603C12.1947 32.8921 11.994 33.0081 11.7852 33.115C9.79868 34.1325 7.88742 35.2731 6.12568 36.6549C5.06392 37.4879 4.03729 38.3731 3.31222 39.5299C2.14559 41.3905 1.73263 43.3727 2.60221 45.4892C2.85611 46.1074 3.24348 46.6415 3.78992 47.0362C3.96704 47.1639 4.16575 47.2906 4.37298 47.3402C4.90386 47.4664 5.44477 47.549 5.98217 47.6488L7.50406 47.6478C9.18702 47.4963 10.7189 46.9141 12.1033 45.9493C14.267 44.4414 15.7247 42.4196 16.3514 39.8248C16.807 37.9388 16.8256 36.0509 16.2887 34.1735C16.239 33.9992 16.1763 33.8285 16.111 33.6597C16.0458 33.491 15.969 33.3268 15.8787 33.1166L19.3289 31.113L19.3806 31.1576C19.3179 31.3649 19.2511 31.5716 19.1944 31.7809C18.7845 33.2929 18.512 34.8312 18.6099 36.4005C18.7142 38.0726 19.1764 39.6378 20.1458 41.0348C20.9296 42.1648 22.7972 42.2068 23.6301 41.0728C23.9257 40.67 24.2122 40.2489 24.4275 39.7995C24.99 38.6264 25.5108 37.4327 26.0482 36.247L26.142 36.0301C26.1034 36.5915 26.0582 37.0845 26.0377 37.5781C26.0055 38.3488 26.0502 39.1149 26.3111 39.8481C26.5344 40.4754 26.9143 40.9441 27.6258 41.0267C28.1125 41.0829 28.5004 40.858 28.8581 40.5727C29.4171 40.1273 29.8712 39.577 30.2084 38.9517C31.1623 37.1828 32.1418 35.4246 33.0063 33.6111C33.9416 31.6496 34.7595 29.6309 35.6281 27.6361L35.7716 27.2824C35.9768 28.0966 36.1198 28.8942 36.3833 29.6492C36.6894 30.5253 37.0682 31.3806 37.4807 32.2121C37.6759 32.6048 37.6533 32.8597 37.3828 33.189C36.2508 34.5672 35.1384 35.9622 34.0249 37.3556C33.7786 37.6632 33.5332 37.9763 33.328 38.3123C33.204 38.5165 33.1217 38.7653 33.0871 39.0034C33.0204 39.4585 33.2989 39.8973 33.7811 40.0021C34.2216 40.0979 34.6908 40.1334 35.1399 40.0999C36.6939 39.9844 38.1049 39.4336 39.3523 38.5003C40.9685 37.2913 41.4874 35.6415 41.096 33.6861C40.9901 33.1556 40.8029 32.6397 40.6208 32.1285C40.539 31.8979 40.5335 31.7363 40.6825 31.5215C41.9746 29.6583 43.0785 27.6817 44.1051 25.6594C44.1458 25.5799 44.1874 25.5003 44.2587 25.4152C44.5913 27.1633 45.0921 28.8481 45.9893 30.3768C45.5317 30.8222 45.0786 31.226 44.6686 31.6709C43.7659 32.6509 42.9831 33.715 42.5747 35.0126C42.3991 35.572 42.2641 36.1406 42.3424 36.738C42.4638 37.6657 43.2165 38.2687 44.1202 38.0574C46.054 37.6054 47.7234 36.6853 48.9432 35.0552C49.7641 33.9577 49.8389 32.7335 49.4952 31.451C49.4009 31.1024 49.289 30.7594 49.1685 30.3596C49.6457 30.2101 50.1109 30.0307 50.5921 29.9198C53.0904 29.3442 55.5617 29.4445 57.9692 30.3555C59.3747 30.8876 60.5102 31.7778 61.1836 33.1784C62.006 34.8905 61.5514 36.515 59.9532 37.5973C59.8042 37.6982 59.6336 37.7777 59.5101 37.9039C59.4344 37.9814 59.3887 38.1365 59.4073 38.2434C59.4178 38.3057 59.5809 38.3837 59.6747 38.3827C60.2001 38.3787 60.6261 38.1005 61.035 37.8147C62.0597 37.0987 62.8073 36.1355 62.9684 34.8672L63 34.772L62.9614 33.946C62.9458 33.8984 62.9729 33.8513 62.9694 33.8153C62.7516 31.9684 61.7747 30.5359 60.3536 29.4131C58.7078 28.1134 56.7644 27.5783 54.7091 27.4937C53.0342 27.4248 51.3879 27.6761 49.8093 28.2552C49.3592 28.4199 48.9131 28.615 48.4605 28.7989C48.3998 28.688 48.3346 28.5816 48.2809 28.4716C47.8163 27.5109 47.2533 26.5927 47.1288 25.4912C47.0405 24.7088 46.9321 23.9275 47.1163 23.1538C47.2934 22.4094 47.5242 21.6777 47.7415 20.9435C47.8534 20.5655 47.7746 20.3537 47.4173 20.1835C47.2929 20.1242 47.1574 20.0725 47.0229 20.0527C46.1448 19.924 45.2788 19.9975 44.4283 20.2473C44.1272 20.336 43.9084 20.5062 43.8417 20.8427C43.8035 21.0357 43.7258 21.2207 43.6716 21.4112C43.4493 22.2032 43.2917 23.0104 42.9325 23.7648C42.0323 25.6574 41.0046 27.4785 39.9529 29.2864C39.839 29.4815 39.7191 29.673 39.5756 29.9096C39.2063 29.1293 38.8124 28.429 38.693 27.6082C38.558 26.6799 38.4516 25.7531 38.6804 24.832C38.8505 24.1449 39.0728 23.4704 39.2775 22.7925C39.3744 22.4702 39.3297 22.301 39.0407 22.1312C38.8947 22.0456 38.7296 21.9696 38.565 21.9448C37.6543 21.8085 36.7571 21.8799 35.8785 22.1667C35.606 22.2559 35.463 22.4337 35.3797 22.7175C35.1349 23.5546 34.9261 24.4119 34.5824 25.2079C33.1905 28.4306 31.7584 31.6365 30.3278 34.8419C30.0293 35.5112 29.6796 36.1573 29.3429 36.8089C29.2576 36.9741 29.1331 37.1195 29.0267 37.2746C28.9414 37.1727 28.9083 37.1028 28.9088 37.0329C28.9113 36.6209 28.8627 36.1968 28.9404 35.7985C29.1758 34.5936 29.4467 33.3952 29.7322 32.2014C29.9681 31.2154 30.2425 30.2385 30.504 29.259C30.5918 28.9312 30.5933 28.6246 30.36 28.349C29.9681 27.8874 29.1492 27.786 28.6635 28.1417L28.4487 28.2644L28.4903 27.9147C28.5927 27.1653 28.6133 26.4184 28.4096 25.6802C28.1557 24.76 27.5054 24.2305 26.56 24.2599C26.1195 24.2736 25.6568 24.3496 25.2489 24.5117C23.5333 25.1907 22.2141 26.3931 21.0912 27.8397C20.9893 27.971 20.8548 28.0906 20.7113 28.1711C19.2597 28.9839 17.8035 29.7865 16.3479 30.5922L14.7276 31.4885C14.2931 31.07 13.8982 30.6357 13.4501 30.2674C12.0818 29.1405 10.6913 28.0414 9.31347 26.9272C8.09214 25.9396 6.90896 24.911 6.00375 23.6032C5.33037 22.6303 4.89633 21.5657 4.85468 20.3628C4.802 18.8301 5.23252 17.4295 6.00526 16.1258C6.99376 14.4577 8.34203 13.119 9.82427 11.9065C11.3923 10.6245 13.0883 9.53611 14.846 8.54246C17.3053 7.15258 19.8347 5.9223 22.5468 5.11006C25.3276 4.27704 28.1491 3.80023 31.0594 4.13263C32.2035 4.26336 33.3144 4.52785 34.3345 5.09283C35.1158 5.52505 35.7566 6.09103 36.0546 6.97574C36.3487 7.84625 36.3396 8.72842 36.1359 9.61262C35.7219 11.4033 34.751 12.8793 33.5292 14.1983C31.5251 16.3604 29.0804 17.8324 26.3282 18.8047C24.7401 19.3656 23.1063 19.7178 21.4283 19.8602C20.059 19.9762 18.7183 19.8536 17.4217 19.3727C16.5631 19.054 15.8155 18.5666 15.2144 17.8592C15.107 17.7325 14.9695 17.5952 14.7693 17.7138C14.5731 17.8303 14.5385 18.0188 14.6042 18.2099C14.7141 18.5271 14.8154 18.8574 14.9865 19.1412C15.4166 19.8531 16.0438 20.3694 16.7342 20.8123C18.0604 21.664 19.5427 21.9503 21.0796 22.0167C23.4119 22.1186 25.6874 21.7669 27.9309 21.1351C31.1337 20.2331 33.9186 18.64 36.152 16.1268C38.0115 14.0341 39.3397 11.6724 39.6243 8.82064C39.7632 7.42873 39.6152 6.06519 38.9699 4.79539C38.27 3.41969 37.157 2.39666 35.8263 1.69184C33.8884 0.665763 31.797 0.0683594 29.6384 0.0683594H27.4758C24.8615 0.0683594 22.3341 0.824867 19.8774 1.72731C18.0178 2.41085 16.1943 3.21752 14.4241 4.11033C10.5689 6.05556 6.9787 8.40109 4.02976 11.6263C2.56056 13.233 1.31666 15.006 0.601128 17.0936C0.391887 17.7047 0.193184 18.3598 0.0436545 18.9917L0 19.9088ZM14.0126 37.2396C13.8455 39.499 12.8314 41.3307 11.1741 42.8143C10.2418 43.6484 9.17247 44.2422 7.92706 44.451C7.47546 44.5265 7.01332 44.5447 6.57527 44.3557C5.95056 44.0862 5.81057 43.5263 5.79852 42.9299C5.77996 41.9793 6.10963 41.1199 6.56173 40.3021C7.15181 39.236 8.01688 38.4233 8.94065 37.6642C10.3958 36.4679 11.9744 35.4555 13.5911 34.4999L13.713 34.4492C13.9629 35.3815 14.0818 36.3022 14.0126 37.2396ZM26.6363 27.4202C26.5184 28.1417 26.3708 28.8638 26.1621 29.563C25.4405 31.9836 24.5138 34.3291 23.5117 36.6432C23.3266 37.0714 23.0571 37.462 22.8228 37.8679C22.7867 37.9307 22.733 37.985 22.6808 38.0371C22.3908 38.3265 22.1158 38.3113 21.9693 37.9328C21.7987 37.4929 21.6938 37.0222 21.6035 36.5566C21.5428 36.2439 21.5573 35.9156 21.5382 35.5953C21.5578 33.3182 22.2457 31.2488 23.4129 29.3224C23.8941 28.5279 24.4179 27.7708 25.2183 27.2682C25.4641 27.1136 25.7401 26.9895 26.0186 26.9105C26.4451 26.7894 26.707 26.9885 26.6363 27.4202ZM35.2488 38.5008L38.3442 34.851C38.4732 36.2064 36.1916 38.9122 35.2488 38.5008ZM45.1353 36.0448C44.9165 36.1715 44.6781 36.2627 44.4538 36.3797C44.2486 36.4871 44.1809 36.3787 44.1749 36.2004C44.1708 36.0792 44.1884 35.9526 44.2215 35.835C44.6395 34.3463 45.4087 33.0755 46.5533 32.0418L46.6336 32.0003C47.178 33.5381 46.5488 35.227 45.1353 36.0448Z" fill="#CB6699"/>
</svg>
